<?xml version="1.0" encoding="utf-8"?>
<svg version="1.1" xmlns:xlink="http://www.w3.org/1999/xlink" width="114px" height="62px" xmlns="http://www.w3.org/2000/svg">
  <g transform="matrix(1 0 0 1 -541 -338 )">
    <path d="M 541 338  L 655 338  L 655 400  L 541 400  L 541 338  " fill-rule="nonzero" fill="#cccccc" stroke="none" />
    <path d="M 545 342  L 651 342  L 651 396  L 545 396  L 545 342  " fill-rule="nonzero" fill="#ffffff" stroke="none" />
    <path d="M 604.93 356.6  C 602.326 356.6  600.28 354.554  600.28 351.95  C 600.28 349.346  602.326 347.3  604.93 347.3  C 607.534 347.3  609.58 349.346  609.58 351.95  C 609.58 354.554  607.534 356.6  604.93 356.6  " fill-rule="nonzero" fill="#cccccc" stroke="none" />
    <path d="M 547 395  L 547 366.95  L 572.75 354.2  L 608.8 378.357894736842  L 629.4 361.85  L 650 378.357894736842  L 650 395  L 547 395  " fill-rule="nonzero" fill="#169bd5" stroke="none" />
  </g>
</svg>