<?xml version="1.0" encoding="utf-8"?>
<svg version="1.1" xmlns:xlink="http://www.w3.org/1999/xlink" width="79px" height="48px" xmlns="http://www.w3.org/2000/svg">
  <g transform="matrix(1 0 0 1 -3385 -496 )">
    <path d="M 3385 496  L 3464 496  L 3464 544  L 3385 544  L 3385 496  " fill-rule="nonzero" fill="#cccccc" stroke="none" />
    <path d="M 3388 499  L 3461 499  L 3461 541  L 3388 541  L 3388 499  " fill-rule="nonzero" fill="#ffffff" stroke="none" />
    <path d="M 3429.68 510.4  C 3427.664 510.4  3426.08 508.816  3426.08 506.8  C 3426.08 504.784  3427.664 503.2  3429.68 503.2  C 3431.696 503.2  3433.28 504.784  3433.28 506.8  C 3433.28 508.816  3431.696 510.4  3429.68 510.4  " fill-rule="nonzero" fill="#cccccc" stroke="none" />
    <path d="M 3389 540  L 3389 518  L 3406.75 508  L 3431.6 525.417721518987  L 3445.8 514  L 3460 525.417721518987  L 3460 540  L 3389 540  " fill-rule="nonzero" fill="#169bd5" stroke="none" />
  </g>
</svg>