<?xml version="1.0" encoding="utf-8"?>
<svg version="1.1" xmlns:xlink="http://www.w3.org/1999/xlink" width="11px" height="3px" xmlns="http://www.w3.org/2000/svg">
  <g transform="matrix(1 0 0 1 -1556 -381 )">
    <path d="M 10.78125 0.21875  C 10.9270833333333 0.364583333333332  11 0.541666666666666  11 0.75  L 11 2.25  C 11 2.45833333333333  10.9270833333333 2.63541666666667  10.78125 2.78125  C 10.6354166666667 2.92708333333333  10.4583333333333 3  10.25 3  L 0.75 3  C 0.541666666666667 3  0.364583333333333 2.92708333333333  0.21875 2.78125  C 0.0729166666666667 2.63541666666667  0 2.45833333333333  0 2.25  L 0 0.75  C 0 0.541666666666666  0.0729166666666667 0.364583333333332  0.21875 0.21875  C 0.364583333333333 0.0729166666666661  0.541666666666667 0  0.75 0  L 10.25 0  C 10.4583333333333 0  10.6354166666667 0.0729166666666661  10.78125 0.21875  Z " fill-rule="nonzero" fill="#797979" stroke="none" transform="matrix(1 0 0 1 1556 381 )" />
  </g>
</svg>